#!OML:ASF E:\acrobat2\Project_11_07_03\Capture day 1\Session 1\Acrobat.ASF
:FULLY-SPECIFIED
:DEGREES
589
root 11.0407 13.7233 -8.70919 213.359 -0.821664 -179.613
lowerback 14.7728 1.68103 2.02005
upperback 8.85444 1.1396 -2.04795
thorax 1.18903 0.18351 -3.44534
lowerneck 1.7058 -1.33484 -1.5342
upperneck -24.437 -3.45479 2.02436
head -7.73206 -2.61039 1.29646
rclavicle 2.6339e-015 -1.95617e-014
rhumerus 39.014 2.49212 -66.9516
rradius 17.4409
rwrist 10.1277
rhand -15.3911 319.384
rfingers 7.12502
rthumb 10.7876 -430.319
lclavicle 2.6339e-015 -1.95617e-014
lhumerus 19.68 -27.2082 72.6375
lradius 12.5771
lwrist 3.74842
lhand -16.6958 -17.3992
lfingers 7.12502
lthumb 9.52881 12.3653
rfemur -30.8238 43.7413 -57.0349
rtibia -6.24222
rfoot -85.7741 -8.02981
rtoes 44.4844
lfemur -25.2893 -19.9302 47.1437
ltibia -11.8212
lfoot -58.6639 -15.4642
ltoes 56.448
590
root 11.047 13.7497 -8.74748 212.651 -0.809359 -179.639
lowerback 14.4456 1.6563 1.86271
upperback 8.68779 1.12756 -2.12379
thorax 1.17878 0.186612 -3.4286
lowerneck 1.69208 -1.27763 -1.41881
upperneck -24.5008 -3.3922 2.00903
head -7.75434 -2.59607 1.26967
rclavicle -8.54774e-015 -1.44616e-014
rhumerus 39.6529 2.66124 -65.6848
rradius 17.6178
rwrist 9.29371
rhand -15.4606 319.404
rfingers 7.12502
rthumb 10.7205 -430.303
lclavicle -8.54774e-015 -1.44616e-014
lhumerus 18.6586 -26.8374 72.6937
lradius 12.5381
lwrist 3.98173
lhand -16.4924 -16.945
lfingers 7.12502
lthumb 9.72508 12.8105
rfemur -30.1012 44.1246 -56.0948
rtibia -6.19117
rfoot -85.1805 -7.9391
rtoes 44.6481
lfemur -25.0828 -21.2047 47.0698
ltibia -11.6138
lfoot -58.9627 -16.2751
ltoes 56.6143
591
root 11.0514 13.7753 -8.78861 211.884 -0.879215 -179.666
lowerback 14.177 1.65404 1.84323
upperback 8.54443 1.15599 -2.2169
thorax 1.17177 0.213907 -3.5143
lowerneck 1.59196 -1.26643 -1.23823
upperneck -24.4787 -3.37093 2.02889
head -7.73171 -2.60637 1.24193
rclavicle 1.12313e-014 -1.94312e-014
rhumerus 40.2198 2.49579 -64.5553
rradius 17.7121
rwrist 8.52775
rhand -15.4372 319.407
rfingers 7.12502
rthumb 10.7431 -430.299
lclavicle 1.12313e-014 -1.94312e-014
lhumerus 17.6916 -26.6586 72.6964
lradius 12.6331
lwrist 4.31449
lhand -16.3596 -16.5222
lfingers 7.12502
lthumb 9.85321 13.2272
rfemur -29.151 44.4833 -54.9509
rtibia -6.18108
rfoot -84.4752 -8.47432
rtoes 44.1884
lfemur -24.8946 -22.5818 47.0113
ltibia -11.3923
lfoot -59.3069 -17.022
ltoes 56.7222
592
root 11.0496 13.7956 -8.83744 211.092 -1.00226 -179.747
lowerback 13.7779 1.622 1.93141
upperback 8.30496 1.17957 -2.37026
thorax 1.13737 0.25195 -3.72116
lowerneck 2.0197 -1.38969 -0.952355
upperneck -24.4033 -3.47423 2.03465
head -7.78529 -2.65463 1.20603
rclavicle 8.94531e-016 -1.16786e-014
rhumerus 40.4275 2.12072 -63.7384
rradius 17.8522
rwrist 8.12363
rhand -15.4462 319.242
rfingers 7.12502
rthumb 10.7344 -430.464
lclavicle 8.94531e-016 -1.16786e-014
lhumerus 16.5412 -26.6118 72.7697
lradius 12.6533
lwrist 4.7715
lhand -16.0358 -15.9183
lfingers 7.12502
lthumb 10.1656 13.8161
rfemur -28.1565 45.579 -54.1193
rtibia -6.34591
rfoot -84.5613 -9.0008
rtoes 43.5144
lfemur -24.6636 -24.0424 46.8546
ltibia -11.2314
lfoot -59.6131 -17.8895
ltoes 56.8502
593
root 11.0423 13.8144 -8.89202 210.237 -1.15547 -179.652
lowerback 13.2794 1.51493 2.18568
upperback 8.0104 1.13365 -2.4859
thorax 1.0976 0.264198 -3.97229
lowerneck 3.18444 -1.3829 -0.819173
upperneck -24.7119 -3.36521 2.18629
head -8.09944 -2.59675 1.25262
rclavicle 4.47266e-015 2.76311e-014
rhumerus 40.4919 1.90288 -63.1112
rradius 18.0636
rwrist 7.97141
rhand -15.5138 319.195
rfingers 7.12502
rthumb 10.6692 -430.514
lclavicle 4.47266e-015 2.76311e-014
lhumerus 15.1685 -26.7235 72.7741
lradius 12.679
lwrist 5.84802
lhand -15.834 -15.153
lfingers 7.12502
lthumb 10.3603 14.5718
rfemur -27.0779 46.627 -52.9579
rtibia -6.47831
rfoot -84.5171 -9.71305
rtoes 42.7333
lfemur -24.2492 -25.5389 46.7794
ltibia -11.1594
lfoot -59.9822 -18.5729
ltoes 56.881
594
root 11.0394 13.8364 -8.94258 209.399 -1.19889 -179.461
lowerback 12.783 1.50055 2.39063
upperback 7.83932 1.18037 -2.51192
thorax 1.19294 0.313556 -4.11213
lowerneck 3.56796 -1.25919 -1.08464
upperneck -24.7459 -3.11946 2.53423
head -8.17306 -2.47248 1.40085
rclavicle 2.16675e-014 2.27608e-014
rhumerus 40.8068 1.52708 -62.3081
rradius 18.2844
rwrist 7.76073
rhand -15.8146 319.354
rfingers 7.12502
rthumb 10.379 -430.37
lclavicle 2.16675e-014 2.27608e-014
lhumerus 13.957 -26.6924 72.8245
lradius 12.9648
lwrist 6.79939
lhand -15.5309 -14.2419
lfingers 7.12502
lthumb 10.6527 15.468
rfemur -25.9788 46.606 -51.3393
rtibia -6.43211
rfoot -83.3178 -10.6805
rtoes 41.8553
lfemur -23.8163 -26.9349 46.778
ltibia -11.0078
lfoot -60.3869 -19.1427
ltoes 56.7361
